#!OML:ASF F:\VICON\USERDATA\INSTALL\rory3\rory3.ASF
:FULLY-SPECIFIED
:DEGREES
142
root 3.94112 17.5589 3.71199 20.2963 -13.5394 0.99426
lowerback -9.57883 3.45059 2.80243
upperback -13.5706 4.39495 -0.928683
thorax -8.82399 1.8521 -2.45332
lowerneck -3.42082 16.2962 12.3213
upperneck 15.0242 20.4056 4.78939
head 5.90982 10.9132 1.05727
rclavicle 2.09221e-014 4.37326e-015
rhumerus 4.08327 -22.0809 14.1964
rradius 121.497
rwrist -56.2813
rhand -6.80851 -47.703
rfingers 7.12502
rthumb 19.055 -76.7896
lclavicle 2.09221e-014 4.37326e-015
lhumerus 27.3825 23.7289 -19.9012
lradius 35.8551
lwrist 55.3624
lhand -30.3414 -20.5778
lfingers 7.12502
lthumb -3.64714 9.3707
rfemur -6.15717 4.20385 -5.46573
rtibia 8.26875
rfoot -44.6357 -10.0059
rtoes 54.1432
lfemur -21.8454 1.68578 -30.4423
ltibia 13.5575
lfoot -11.04 9.43437
ltoes 11.4013
143
root 3.94374 17.5593 3.71298 20.2718 -13.4668 0.976289
lowerback -9.61019 3.44123 2.84896
upperback -13.5518 4.37902 -0.938396
thorax -8.78173 1.84061 -2.48682
lowerneck -3.26741 16.219 12.4051
upperneck 15.1128 20.3279 4.69659
head 5.93007 10.877 1.00672
rclavicle 7.45443e-015 -9.93923e-015
rhumerus 4.10272 -21.9677 14.1226
rradius 121.46
rwrist -56.2834
rhand -7.17188 -47.8458
rfingers 7.12502
rthumb 18.7055 -76.9664
lclavicle 7.45443e-015 -9.93923e-015
lhumerus 27.3384 23.6226 -20.001
lradius 35.9017
lwrist 55.5926
lhand -29.3145 -20.191
lfingers 7.12502
lthumb -2.65547 9.77221
rfemur -5.99216 4.15889 -5.42984
rtibia 8.10718
rfoot -44.7075 -9.99848
rtoes 54.118
lfemur -21.8675 1.73386 -30.4374
ltibia 13.6807
lfoot -11.1873 9.34234
ltoes 11.5434
144
root 3.95017 17.5582 3.72003 20.3439 -13.3202 0.87504
lowerback -9.85431 3.43911 3.06754
upperback -13.4847 4.35659 -0.953717
thorax -8.55342 1.81499 -2.60549
lowerneck -3.45073 16.145 12.451
upperneck 15.4331 20.1945 4.65746
head 6.06855 10.8225 1.01475
rclavicle -3.06625e-014 -2.3059e-014
rhumerus 4.06398 -21.9299 14.0804
rradius 121.481
rwrist -56.3894
rhand -7.07502 -48.078
rfingers 7.12502
rthumb 18.7987 -77.1896
lclavicle -3.06625e-014 -2.3059e-014
lhumerus 27.1697 23.4244 -20.3215
lradius 36.0123
lwrist 55.9141
lhand -28.8116 -19.9739
lfingers 7.12502
lthumb -2.1698 9.99482
rfemur -5.65349 4.04279 -5.32431
rtibia 7.61353
rfoot -44.7301 -10.1145
rtoes 54.1492
lfemur -21.9717 1.85569 -30.3878
ltibia 13.8485
lfoot -11.4131 9.12441
ltoes 11.7749
145
root 3.95495 17.556 3.72454 20.309 -13.3065 0.850027
lowerback -9.88737 3.46544 3.14545
upperback -13.4265 4.38601 -0.970661
thorax -8.45973 1.82497 -2.66063
lowerneck -4.14368 16.0578 12.15
upperneck 16.1352 19.9384 4.98534
head 6.33602 10.728 1.2204
rclavicle 8.74653e-015 1.51076e-014
rhumerus 3.95094 -21.9378 14.1939
rradius 121.573
rwrist -56.5805
rhand -6.92609 -48.286
rfingers 7.12502
rthumb 18.9419 -77.3837
lclavicle 8.74653e-015 1.51076e-014
lhumerus 26.9763 23.0979 -20.6449
lradius 36.2168
lwrist 56.3408
lhand -29.4184 -20.0802
lfingers 7.12502
lthumb -2.75583 9.88173
rfemur -5.24921 4.05168 -5.33934
rtibia 7.05908
rfoot -44.7876 -10.1138
rtoes 54.2493
lfemur -21.9732 1.8201 -30.3825
ltibia 14.0034
lfoot -11.4655 9.17867
ltoes 11.8826
146
root 3.95687 17.5445 3.7558 19.4798 -13.9957 0.779767
lowerback -9.45102 3.73267 3.3025
upperback -13.1197 4.74845 -1.01406
thorax -8.31484 1.99732 -2.79506
lowerneck -4.72385 15.933 11.8551
upperneck 16.8698 19.64 5.36418
head 6.59318 10.6193 1.42861
rclavicle 2.57426e-014 1.59028e-014
rhumerus 3.88842 -21.8598 14.244
rradius 121.609
rwrist -56.7944
rhand -7.09118 -48.37
rfingers 7.12502
rthumb 18.7831 -77.4831
lclavicle 2.57426e-014 1.59028e-014
lhumerus 26.9023 22.7787 -20.8022
lradius 36.3769
lwrist 56.6326
lhand -30.0004 -20.4608
lfingers 7.12502
lthumb -3.3178 9.49309
rfemur -4.39276 5.0147 -5.54128
rtibia 6.64524
rfoot -44.9026 -9.86814
rtoes 54.308
lfemur -20.986 1.72624 -30.3364
ltibia 14.1221
lfoot -11.6232 10.1421
ltoes 11.7802
147
root 3.95537 17.5435 3.75267 19.2017 -14.2916 0.772524
lowerback -9.17446 3.82678 3.24974
upperback -13.0145 4.88592 -1.03069
thorax -8.34289 2.07049 -2.79345
lowerneck -4.82655 15.7918 11.7912
upperneck 17.1444 19.4357 5.35253
head 6.68924 10.5255 1.43806
rclavicle -3.51849e-014 -2.94201e-014
rhumerus 4.10053 -21.8724 13.9819
rradius 121.467
rwrist -56.7521
rhand -7.053 -48.5301
rfingers 7.12502
rthumb 18.8198 -77.6397
lclavicle -3.51849e-014 -2.94201e-014
lhumerus 27.0161 22.9276 -20.5979
lradius 36.3012
lwrist 56.3249
lhand -30.1142 -20.989
lfingers 7.12502
lthumb -3.4277 8.96318
rfemur -4.23929 5.39083 -5.60742
rtibia 6.49675
rfoot -45.1089 -9.70264
rtoes 54.3973
lfemur -20.7217 1.78356 -30.3429
ltibia 14.1465
lfoot -11.6676 10.4155
ltoes 11.8267
148
root 3.9544 17.5462 3.73666 19.1413 -14.3908 0.798091
lowerback -8.95034 3.84594 3.12204
upperback -12.984 4.92542 -1.03547
thorax -8.44049 2.0993 -2.74182
lowerneck -4.67373 15.6339 11.7559
upperneck 17.0666 19.2818 5.14568
head 6.65083 10.4321 1.34813
rclavicle 2.33572e-015 -1.94809e-014
rhumerus 4.24833 -21.8545 13.8144
rradius 121.352
rwrist -56.5974
rhand -6.76771 -48.6591
rfingers 7.12502
rthumb 19.0942 -77.7419
lclavicle 2.33572e-015 -1.94809e-014
lhumerus 27.2033 23.2059 -20.2654
lradius 36.2028
lwrist 55.8913
lhand -30.3349 -21.1272
lfingers 7.12502
lthumb -3.6409 8.82144
rfemur -4.4285 5.49456 -5.62522
rtibia 6.59072
rfoot -45.1974 -9.67674
rtoes 54.4159
lfemur -20.7204 1.93327 -30.3934
ltibia 14.1133
lfoot -11.6267 10.3387
ltoes 11.7899
149
root 3.95369 17.5467 3.72473 19.0537 -14.4743 0.861489
lowerback -8.72392 3.87016 2.98947
upperback -12.9902 4.97043 -1.06337
thorax -8.57977 2.12851 -2.71429
lowerneck -4.38976 15.495 11.7386
upperneck 16.9926 19.1578 5.01845
head 6.58667 10.3609 1.27108
rclavicle -5.1684e-015 -1.51076e-014
rhumerus 4.18914 -21.642 13.8734
rradius 121.279
rwrist -56.4205
rhand -6.51933 -48.4655
rfingers 7.12502
rthumb 19.3331 -77.5244
lclavicle -5.1684e-015 -1.51076e-014
lhumerus 27.3551 23.1596 -20.0902
lradius 36.2291
lwrist 55.9075
lhand -30.8369 -21.1845
lfingers 7.12502
lthumb -4.1256 8.75531
rfemur -4.72942 5.58009 -5.68534
rtibia 7.02393
rfoot -45.1253 -9.88385
rtoes 54.2833
lfemur -20.6882 2.02858 -30.4735
ltibia 14.0907
lfoot -11.5652 10.3178
ltoes 11.5033
150
root 3.9539 17.5467 3.71235 18.994 -14.473 0.967108
lowerback -8.47716 3.84807 2.84704
upperback -13.0451 4.9545 -1.0882
thorax -8.79215 2.12579 -2.68387
lowerneck -4.34479 15.417 11.6746
upperneck 17.2893 19.0421 5.12601
head 6.65605 10.3195 1.31152
rclavicle -2.18166e-014 -3.18055e-014
rhumerus 4.2978 -21.4935 13.7717
rradius 121.093
rwrist -56.2028
rhand -6.25258 -48.2256
rfingers 7.12502
rthumb 19.5895 -77.2586
lclavicle -2.18166e-014 -3.18055e-014
lhumerus 27.5797 23.2927 -19.735
lradius 36.141
lwrist 55.5921
lhand -31.0338 -21.3035
lfingers 7.12502
lthumb -4.31573 8.63256
rfemur -4.94266 5.56374 -5.76934
rtibia 7.35915
rfoot -45.1048 -10.0999
rtoes 54.2487
lfemur -20.7286 2.10184 -30.585
ltibia 14.1305
lfoot -11.5823 10.1985
ltoes 11.8134
151
root 3.95809 17.546 3.70279 18.9986 -14.3541 1.02481
lowerback -8.40559 3.79636 2.85655
upperback -13.0428 4.88682 -1.11338
thorax -8.83153 2.08874 -2.72217
lowerneck -4.52997 15.3481 11.5973
upperneck 17.6821 18.9053 5.2274
head 6.79423 10.2688 1.37586
rclavicle -1.86858e-014 -2.0276e-014
rhumerus 4.50392 -21.4879 13.5477
rradius 120.912
rwrist -56.1622
rhand -6.01929 -48.2456
rfingers 7.12502
rthumb 19.8138 -77.2557
lclavicle -1.86858e-014 -2.0276e-014
lhumerus 27.7499 23.6408 -19.3772
lradius 36.0296
lwrist 55.087
lhand -30.7765 -21.0166
lfingers 7.12502
lthumb -4.06736 8.92431
rfemur -5.01644 5.43606 -5.79509
rtibia 7.52495
rfoot -45.0732 -10.3062
rtoes 54.325
lfemur -20.8158 2.20347 -30.6702
ltibia 14.2179
lfoot -11.685 9.94609
ltoes 12.4492
